<?xml version="1.0" encoding="utf-8" ?>
<svg xmlns="http://www.w3.org/2000/svg" xmlns:xlink="http://www.w3.org/1999/xlink" width="1000" height="1000">
	<path d="M855.023 186.182C866.624 175.866 905.303 132.488 915.468 127.584C919.15 127.435 922.017 127.547 924.899 130.099C935.763 139.718 916.666 153.809 910.642 159.921C897.01 173.751 882.909 187.134 869.379 201.058C885.577 217.44 924.331 247.44 921.282 270.564C912.53 336.945 791.281 340.141 742.607 333.355C758.18 371.257 758.655 415.396 733.394 449.734C715.801 473.649 694.379 495.824 664.862 473.87C645.424 515.612 650.39 519.537 601.339 536.96C605.7 548.351 612.092 558.459 606.24 570.811C600.942 581.995 577.836 603.298 567.963 612.676C542.19 637.155 522.032 615.596 503.524 596.806C493.201 586.325 482.852 575.855 472.774 565.137C470.523 567.022 468.463 569.312 466.388 571.394C507.696 622.625 507.833 696.679 461.849 745.029C414.225 795.104 340.319 800.318 286.052 757.928C279.147 752.534 272.867 746.281 266.536 740.237C263.55 744.661 259.258 748.462 255.514 752.248L115.458 892.38C107.974 900.065 94.7763 897.624 96.3388 886.855C97.5057 878.813 121.052 858.611 127.255 852.255L231.045 748.308C238.89 740.421 246.522 731.778 255.25 724.88C253.162 720.478 250.673 716.289 248.533 711.913C192.872 598.109 315.842 482.546 422.109 537.173C433.239 542.894 443.123 550.279 452.774 558.181C454.915 555.933 457.017 553.743 458.828 551.212C445.312 536.677 416.708 513.163 407.02 497.569C390.938 471.687 410.847 453.821 427.249 437.602C444.17 420.869 461.167 402.281 485.388 422.343C513.958 367.706 491.854 385.194 551.912 360.192C533.634 338.113 540.339 324.217 559.614 305.05C598.32 266.56 659.566 254.9 704.042 290.465L704.043 280.582C704.357 240.3 722.934 170.621 753.255 141.247C781.341 114.037 806.518 137.463 825.983 156.929L855.023 186.182ZM778.697 150.586C773.769 151.683 769.563 153.234 766.732 157.755C756.641 173.87 778.646 189.999 788.395 199.753L854.131 265.558C865.27 276.847 869.86 288.521 886.813 287.943C895.986 283.453 901.967 273.203 900.283 263.019C899.104 255.89 848.488 208.908 840.398 200.625L810.599 170.315C801.376 160.908 793.621 148.937 778.697 150.586ZM748.642 186.182C734.632 200.422 724.038 261.351 724.184 280C724.352 301.466 721.318 309.251 741.286 312.67C771.612 317.863 803.676 317.749 833.886 311.44C843.571 309.23 852.831 306.436 862.251 303.29C840.577 282.063 819.76 259.931 798.279 238.517L770.714 210.628C762.237 202.071 755.661 196.324 748.642 186.182ZM633.162 290.465C628.167 290.714 623.248 291.289 618.396 292.539L655.346 330.019C659.534 334.335 664.893 338.668 668.389 343.48C673.347 350.304 667.465 360.471 658.939 359.406C651.705 358.502 604.707 307.567 598.118 300.232C587.614 306.309 567.636 322.622 562.041 333.355C562.031 335.558 561.974 337.771 562.041 339.973C566.244 347.227 584.588 363.314 591.418 370.17L661.75 440.96C669.364 448.588 682.67 468.855 694.214 461.66C701.731 456.975 718.577 437.133 722.818 428.164L722.27 427.529C712.336 416.11 700.494 405.518 689.789 394.756C681.205 386.126 661.897 365.097 688.43 366.041C698.04 372.044 724.988 405.31 729.67 406.631C732.963 403.163 733.631 385.537 733.524 380.391C732.442 328.324 684.812 286.452 633.162 290.465ZM568.729 376.125C561.56 379.086 524.925 391.565 521.826 394.508C516.121 399.926 505.157 429.17 499.604 438.289L518.296 456.841C522.1 460.607 531.425 467.605 531.509 473.57C531.601 480.134 521.964 486.776 516.24 482.856C503.531 474.153 476.346 437.197 465.617 434.669C456.309 432.476 441.87 452.243 436.382 457.932C409.11 486.209 425.337 488.951 448.489 512.38L521.342 586.175C548.754 614.261 549.125 602.729 572.23 580.071C594.591 558.143 591.657 558.676 571.542 538.722L548.214 515.25C541.777 508.693 527.318 490.589 547.61 490.026C554.267 489.841 576.469 515.596 583.04 522.227C639.314 500.83 625.215 509.165 649.602 456.925C638.99 446.835 575.598 379.677 568.729 376.125ZM361.914 544.247C295.041 549.003 250.217 600.18 255.776 667.215C260.546 724.722 318.073 771.889 375.213 766.655C463.725 758.547 508.323 654.266 452.774 586.175C449.017 587.927 446.803 590.725 444.132 593.786C453.068 606.12 458.162 616.231 461.861 631.181C473.086 687.225 441.952 741.877 384.303 753.317C330.288 764.036 278.709 726.268 268.188 672.985C251.365 587.779 347.808 523.603 421.134 573.42C423.955 575.337 426.769 577.453 429.179 579.875C432.049 577.12 435.004 574.416 437.595 571.394C416.008 553.571 390.104 543.661 361.914 544.247ZM353.496 577.198C339.948 578.814 329.076 583.382 317.772 590.943C324.687 598.461 331.869 605.538 339.327 612.514C345.445 618.474 351.824 624.363 357.004 631.181L357.028 595.678C357.02 589.762 359.945 576.274 353.496 577.198ZM376.43 577.198C375.232 592.91 376.11 615.246 376.43 631.181C383.347 625.15 389.313 617.991 396.681 612.514C402.484 605.96 408.97 600.085 415.038 593.786C404.879 583.951 390.555 577.866 376.43 577.198ZM303.417 605.69C294.602 617.763 289.514 629.163 287.271 644.01L325.967 644.01L342.197 644.01C337.417 638.312 307.488 607.56 303.417 605.69ZM429.179 607.844C416.951 620.314 404.306 632.304 391.346 644.01C396.653 644.144 401.943 644.093 407.25 644.01L444.132 644.01C442.245 632.152 438.861 617.231 430.254 608.234L429.179 607.844ZM287.271 663.966C288.181 678.026 294.903 693.002 303.417 704.132C308.512 696.501 315.824 690.683 322.211 684.171C328.774 677.345 335.7 670.838 342.197 663.966L287.271 663.966ZM387.959 663.966C397.818 673.828 419.818 697.951 429.179 704.132L434.432 695.021C440.113 685.133 443.3 675.37 444.132 663.966C425.488 663.947 406.572 663.231 387.959 663.966ZM355.685 680.354C347.051 685.987 322.445 708.564 317.772 718.555C321.056 721.363 324.314 723.147 328.236 724.88C336.451 731.278 346.846 733.882 357.004 735.409C357.097 727.417 357.719 684.756 356.04 680.544L355.685 680.354ZM376.43 680.354L376.43 735.409C385.907 732.854 395.605 729.496 404.268 724.88C407.853 722.769 411.419 720.609 415.038 718.555C404.028 707.079 387.781 690.155 376.43 680.354Z"/>
</svg>
